<svg id="vector" xmlns="http://www.w3.org/2000/svg" width="16" height="16" viewBox="0 0 16 16"><path fill="#D32F2F" d="M7.655,14.916L8,14.25L8.345,14.916C8.238,14.971 8.12,15 8,15C7.88,15 7.762,14.971 7.655,14.916V14.916ZM7.655,14.916L8,14.25L8.345,14.916L8.347,14.915L8.353,14.912L8.371,14.902C8.476,14.848 8.579,14.791 8.681,14.732C9.899,14.038 11.049,13.23 12.114,12.318C13.956,10.731 16,8.35 16,5.5C16,2.836 13.914,1 11.75,1C10.203,1 8.847,1.802 8,3.02C7.153,1.802 5.797,1 4.25,1C2.086,1 0,2.836 0,5.5C0,8.35 2.045,10.731 3.885,12.318C5.041,13.306 6.295,14.172 7.629,14.902L7.647,14.912L7.653,14.915H7.655V14.916Z" fill-rule="evenodd" id="path_0"/></svg>